<svg width="200" height="200" viewBox="0 0 200 200" xmlns="http://www.w3.org/2000/svg">
  <!-- Background hexagon -->
  <path d="M100,10 L190,60 V140 L100,190 L10,140 V60 Z" fill="#3C873A"/>
  <!-- White twisted shape (simplified approximation of Node.js logo curves) -->
  <path d="M100,40 C120,40 140,60 140,100 C140,140 120,160 100,160 C80,160 60,140 60,100 C60,60 80,40 100,40 M100,60 C90,60 80,70 80,100 C80,130 90,140 100,140 C110,140 120,130 120,100 C120,70 110,60 100,60" fill="#FFFFFF"/>
</svg>
