<svg width="200" height="200" viewBox="0 0 200 200" xmlns="http://www.w3.org/2000/svg">
  <!-- Blue snake -->
  <path d="M60 60 C60 40 80 30 100 30 C120 30 140 40 140 60 V80 H100 V100 H140 C140 120 120 140 100 140 C80 140 60 120 60 100 Z" fill="#3572A5"/>
  <!-- Yellow snake -->
  <path d="M60 100 C60 120 80 140 100 140 C120 140 140 120 140 100 V80 H100 V60 H140 C140 40 120 30 100 30 C80 30 60 40 60 60 Z" fill="#FFD43B"/>
  <!-- Python text -->
  <text x="50" y="180" font-family="Helvetica, Arial, sans-serif" font-size="40" font-weight="bold" fill="#3572A5">Python</text>
</svg>
