

<svg width="200" height="200" viewBox="0 0 100 100" xmlns="http://www.w3.org/2000/svg">
  <circle cx="50" cy="50" r="45" fill="#000000"/>
  <path d="M50 10
           a 40 40 0 0 1 28.28 11.72
           a 40 40 0 0 1 0 56.56
           a 40 40 0 0 1 -56.56 0
           a 40 40 0 0 1 0 -56.56
           A 40 40 0 0 1 50 10
           M50 15
           a 35 35 0 0 0 -24.75 10.25
           a 35 35 0 0 0 0 49.5
           a 35 35 0 0 0 49.5 0
           a 35 35 0 0 0 0 -49.5
           A 35 35 0 0 0 50 15
           M50 30
           l 5 0
           l 2.5 4.33
           l 5 -8.66
           l 5 8.66
           l 2.5 -4.33
           l 5 0
           l 0 5
           l -4.33 2.5
           l 8.66 5
           l -8.66 5
           l 4.33 2.5
           l 0 5
           l -5 0
           l -2.5 -4.33
           l -5 8.66
           l -5 -8.66
           l -2.5 4.33
           l -5 0
           l 0 -5
           l 4.33 -2.5
           l -8.66 -5
           l 8.66 -5
           l -4.33 -2.5
           z" fill="#ffffff"/>
</svg>
